<?xml version="1.0" encoding="iso-8859-1"?>
<!-- Uploaded to: SVG Repo, www.svgrepo.com, Generator: SVG Repo Mixer Tools -->
<svg height="800px" width="800px" version="1.1" id="Layer_1" xmlns="http://www.w3.org/2000/svg" xmlns:xlink="http://www.w3.org/1999/xlink" 
	 viewBox="0 0 512 512" xml:space="preserve">
<path style="fill:#CEE8FA;" d="M152.321,100.823c7.845-21.852,22.401-40.494,41.183-53.465
	c-4.509-19.229-21.758-33.553-42.363-33.553c-24.037,0-43.524,19.487-43.524,43.524s19.486,43.524,43.524,43.524
	C151.537,100.852,151.927,100.833,152.321,100.823z"/>
<path style="fill:#2D527C;" d="M151.14,114.659c-31.611,0-57.329-25.719-57.329-57.329S119.53,0,151.14,0
	c26.753,0,49.701,18.178,55.804,44.206c1.296,5.529-0.924,11.286-5.597,14.512c-16.5,11.393-29.297,28.003-36.034,46.77
	c-1.927,5.37-6.96,9.001-12.662,9.136l-0.279,0.008C151.963,114.647,151.553,114.659,151.14,114.659z M151.14,27.61
	c-16.388,0-29.719,13.331-29.719,29.718c0,13.733,9.365,25.322,22.044,28.716c7.765-16.848,19.148-31.616,33.498-43.47
	C171.798,33.474,162.084,27.61,151.14,27.61z"/>
<path style="fill:#CEE8FA;" d="M360.858,13.805c-20.605,0-37.855,14.324-42.363,33.554c18.783,12.97,33.338,31.612,41.183,53.465
	c0.393,0.01,0.784,0.029,1.18,0.029c24.037,0,43.524-19.487,43.524-43.524S384.896,13.805,360.858,13.805z"/>
<path style="fill:#2D527C;" d="M360.857,114.659c-0.413,0-0.823-0.011-1.233-0.026l-0.277-0.008
	c-5.704-0.137-10.735-3.767-12.663-9.136c-6.737-18.766-19.534-35.377-36.034-46.77c-4.673-3.226-6.893-8.984-5.598-14.512
	C311.159,18.178,334.106,0,360.857,0c31.611,0,57.329,25.717,57.329,57.328S392.469,114.659,360.857,114.659z M335.036,42.573
	c14.35,11.854,25.731,26.623,33.498,43.47c12.68-3.393,22.044-14.983,22.044-28.716c0-16.386-13.331-29.718-29.719-29.718
	C349.915,27.61,340.202,33.474,335.036,42.573z"/>
<circle style="fill:#CEE8FA;" cx="160.855" cy="454.239" r="43.955"/>
<path style="fill:#2D527C;" d="M160.855,512c-31.849,0-57.76-25.912-57.76-57.76s25.911-57.76,57.76-57.76s57.76,25.912,57.76,57.76
	S192.703,512,160.855,512z M160.855,424.09c-16.624,0-30.15,13.525-30.15,30.15c0,16.625,13.525,30.15,30.15,30.15
	s30.15-13.525,30.15-30.15C191.005,437.615,177.479,424.09,160.855,424.09z"/>
<circle style="fill:#CEE8FA;" cx="351.143" cy="454.239" r="43.955"/>
<g>
	<path style="fill:#2D527C;" d="M351.144,512c-31.848,0-57.76-25.912-57.76-57.76s25.912-57.76,57.76-57.76
		s57.76,25.912,57.76,57.76S382.993,512,351.144,512z M351.144,424.09c-16.625,0-30.15,13.525-30.15,30.15
		c0,16.625,13.525,30.15,30.15,30.15c16.625,0,30.15-13.525,30.15-30.15C381.294,437.615,367.769,424.09,351.144,424.09z"/>
	<path style="fill:#2D527C;" d="M397.342,299.412c-5.082,0-10.245-0.805-15.322-2.503c-7.231-2.416-11.134-10.236-8.718-17.467
		c2.414-7.231,10.232-11.136,17.467-8.718c10.903,3.642,22.746-2.265,26.391-13.171c1.764-5.285,1.367-10.939-1.121-15.924
		c-2.488-4.984-6.767-8.701-12.05-10.467c-5.285-1.766-10.939-1.368-15.923,1.121c-4.985,2.488-8.703,6.767-10.468,12.05
		c-2.416,7.23-10.235,11.132-17.467,8.718c-7.231-2.416-11.134-10.236-8.718-17.467c4.103-12.28,12.741-22.226,24.324-28.006
		s24.727-6.704,37.003-2.602c25.346,8.469,39.078,35.98,30.608,61.327C436.575,286.57,417.624,299.412,397.342,299.412z"/>
	<path style="fill:#2D527C;" d="M114.657,299.412c-20.284,0.003-39.232-12.84-46.005-33.11
		c-8.469-25.346,5.261-52.858,30.607-61.327c12.277-4.106,25.419-3.181,37.003,2.602c11.584,5.782,20.222,15.728,24.324,28.006
		c2.416,7.231-1.487,15.052-8.718,17.467c-7.231,2.416-15.052-1.485-17.467-8.718c-1.766-5.283-5.483-9.564-10.468-12.05
		c-4.985-2.486-10.638-2.887-15.924-1.121c-10.906,3.645-16.814,15.484-13.171,26.391c3.646,10.909,15.484,16.814,26.391,13.171
		c7.224-2.42,15.052,1.485,17.467,8.718c2.416,7.231-1.487,15.052-8.718,17.467C124.903,298.606,119.735,299.412,114.657,299.412z"
		/>
	<path style="fill:#2D527C;" d="M255.999,261.985c-68.344,0-123.947-55.602-123.947-123.947S187.654,14.092,255.999,14.092
		s123.946,55.602,123.946,123.947c0,7.623-6.182,13.805-13.805,13.805s-13.805-6.182-13.805-13.805
		c0-53.12-43.216-96.337-96.337-96.337s-96.337,43.216-96.337,96.337s43.216,96.337,96.337,96.337
		c24.991,0,48.679-9.527,66.701-26.827c5.497-5.28,14.238-5.104,19.519,0.399c5.28,5.5,5.101,14.238-0.399,19.519
		C318.632,249.726,288.152,261.985,255.999,261.985z"/>
	<path style="fill:#2D527C;" d="M255.999,493.958c-20.532,0-40.454-4.038-59.215-12.002c-6.756-2.869-10.086-10.521-7.582-17.419
		c1.195-3.292,1.802-6.758,1.802-10.294c0-16.625-13.525-30.15-30.15-30.15c-5.145,0-10.225,1.323-14.694,3.825
		c-6.404,3.588-14.491,1.536-18.413-4.667c-15.304-24.204-23.393-52.192-23.393-80.936v-11.252
		c0-50.352,24.382-95.688,66.893-124.387c6.319-4.268,14.9-2.602,19.165,3.718c4.266,6.319,2.601,14.9-3.718,19.165
		c-34.783,23.481-54.731,60.478-54.731,101.502v11.252c0,19.679,4.63,38.918,13.474,56.266c5.003-1.385,10.194-2.098,15.416-2.098
		c31.849,0,57.76,25.912,57.76,57.76c0,2.104-0.113,4.197-0.338,6.273c12.133,3.875,24.776,5.834,37.722,5.834
		c12.946,0,25.59-1.959,37.722-5.835c-0.224-2.074-0.337-4.168-0.337-6.272c0-31.848,25.912-57.76,57.76-57.76
		c5.222,0,10.413,0.714,15.416,2.098c8.842-17.347,13.474-36.587,13.474-56.266v-11.252c0-41.027-19.948-78.023-54.731-101.502
		c-6.32-4.266-7.983-12.847-3.718-19.165c4.266-6.321,12.847-7.983,19.165-3.718c42.512,28.698,66.893,74.035,66.893,124.387v11.252
		c0,28.745-8.088,56.733-23.393,80.937c-3.922,6.201-12.006,8.254-18.414,4.666c-4.467-2.503-9.549-3.825-14.693-3.825
		c-16.625,0-30.15,13.525-30.15,30.15c0,3.538,0.606,7.002,1.803,10.296c2.503,6.898-0.828,14.55-7.582,17.418
		C296.454,489.919,276.532,493.958,255.999,493.958z"/>
</g>
<path style="fill:#CEE8FA;" d="M224.753,286.007c18.655,0,27.023,10.456,30.317,16.598c0.414,0.772,1.536,0.77,1.949-0.001
	c3.281-6.142,11.606-16.595,30.258-16.595c21.249,0,39.941,14.505,39.941,40.992c0,10.718-2.184,19.9-8.247,30.147
	c-12.354,20.883-53.052,47.954-61.413,53.289c-0.925,0.589-2.094,0.591-3.021,0.004c-8.367-5.309-49.073-32.247-61.523-53.293
	c-6.062-10.247-8.232-19.429-8.232-30.147C184.782,300.512,203.504,286.007,224.753,286.007z"/>
<path style="fill:#2D527C;" d="M256.044,424.685c-3.159,0-6.24-0.895-8.908-2.591c-8.482-5.381-51.548-33.48-66.004-57.917
	c-7.023-11.872-10.154-23.337-10.154-37.177c0-31.751,22.615-54.797,53.776-54.797c14.367,0,24.436,4.804,31.279,10.368
	c6.832-5.563,16.888-10.368,31.245-10.368c31.143,0,53.745,23.046,53.745,54.797c0,13.823-3.136,25.288-10.17,37.177
	c-14.352,24.259-57.386,52.486-65.868,57.897C262.313,423.781,259.218,424.685,256.044,424.685z M224.753,299.812
	c-12.071,0-26.166,7.121-26.166,27.188c0,8.846,1.828,15.546,6.307,23.118c8.283,14.005,34.412,33.623,51.134,44.812
	c16.726-11.246,42.84-30.916,51.06-44.812c4.491-7.591,6.323-14.29,6.323-23.118c0-20.067-14.078-27.188-26.136-27.188
	c-8.703,0-14.786,3.128-18.082,9.295c-2.595,4.861-7.634,7.88-13.151,7.88c-5.508,0-10.544-3.014-13.142-7.863
	C239.589,302.946,233.481,299.812,224.753,299.812z"/>
</svg>